<svg xmlns="http://www.w3.org/2000/svg" width="204" height="22" viewBox="0 0 204 22">
    <defs>
        <style>
            .cls-8{fill:#070303}
        </style>
    </defs>
    <g id="ci_한국문화예술위원회" transform="translate(-40 -33) translate(40 33)">
        <path id="사각형_110" fill="none" d="M0 0H204V22H0z"/>
        <g id="ci">
            <path id="패스_25" fill="#feae17" d="M97.632 133.3c-3.547.093-6.471 3.248-7.5 7.361 2.894.778 4.81 2.436 4.96 5.708.1 2.064-1.275 3.951-3.6 5.145 1.2 1.595 3.123 2.537 6.136 2.416 6.106-.244 7.932-3.481 7.932-9.177 0-5.625-2.11-11.456-7.716-11.457h-.217" transform="translate(-64.426 -131.966)"/>
            <path id="패스_26" fill="#2c7bc1" d="M65.516 150.433c-.113 3.189 4.782 6.376 10.931 6.376a13.089 13.089 0 0 0 5.971-1.318c-1.441-1.92-1.823-4.791-1.759-7.9a13.425 13.425 0 0 1 .394-2.956 22.188 22.188 0 0 0-5.388-.606h-.232c-6.909 0-9.816 3.6-9.917 6.41" transform="translate(-55.349 -135.939)"/>
            <path id="패스_27" fill="#000f3a" d="M94.857 150.7c-.15-3.274-2.066-4.933-4.961-5.712a13.435 13.435 0 0 0-.394 2.956c-.064 3.114.318 5.984 1.759 7.905 2.321-1.2 3.691-3.084 3.6-5.149" transform="translate(-64.192 -136.293)"/>
            <path id="패스_28" fill="#c5006d" d="M114.794 135.1a3.621 3.621 0 0 0 3.988 3.911 3.7 3.7 0 0 0 3.989-3.911c0-2.459-1.081-3.911-3.989-3.911s-3.988 1.452-3.988 3.911" transform="translate(-73.552 -131.191)"/>
            <path id="패스_29" fill="#9ea400" d="M49.411 152.479c0 1.928.932 3.221 4.175 3.221s4.175-1.293 4.175-3.221-1.961-5.433-4.175-5.433-4.175 3.5-4.175 5.433" transform="translate(-49.411 -137.049)"/>
            <path id="패스_30" fill="#a3a2a1" d="M117.8 152.446c0 2.29 2.111 3.5 10.19 3.5 5.626 0 10.129-1.858 10.19-4.147V151.743c-.02-2.756-6.894-4.45-12.483-4.45-5.629 0-7.9 2.858-7.9 5.149" transform="translate(-74.665 -137.146)"/>
            <path id="패스_31" d="M336.057 157.013h-1.935v3.949h8.964v-1.772h-7.029z" class="cls-8" transform="translate(-154.544 -140.729)"/>
            <path id="패스_32" d="M165.213 141.069a2.061 2.061 0 1 1 2.059 2.059 2.058 2.058 0 0 1-2.059-2.059m6 0a3.914 3.914 0 0 0-.572-2.035h1.113v-1.773h-3.478l-.034-.009v-1.2h-1.932v1.2l-.044.011h-3.492v1.773h1.126a3.942 3.942 0 1 0 7.316 2.035" class="cls-8" transform="translate(-91.267 -132.982)"/>
            <path id="패스_33" d="M355.363 141.088a2.062 2.062 0 1 1 2.06 2.059 2.057 2.057 0 0 1-2.06-2.059m8.176-4.526v10.07h-5.152v-1.726a3.948 3.948 0 0 0 2.983-3.819 3.9 3.9 0 0 0-.573-2.034h1.114v-1.772h-3.481l-.034-.009v-1.2h-1.936v1.2l-.044.011h-3.494v1.772h1.127a3.906 3.906 0 0 0-.573 2.034 3.947 3.947 0 0 0 2.976 3.817v1.727h-3.536v1.767h10.622v4.831h1.935v-16.669z" class="cls-8" transform="translate(-161.474 -132.99)"/>
            <path id="패스_34" d="M315.812 146.027h-10.179v1.773h3.667v5.741h1.932V147.8h4.578v5.741h1.935v-16.69h-1.935z" class="cls-8" transform="translate(-144.039 -133.294)"/>
            <path id="패스_35" d="M310 138.8a2.14 2.14 0 1 1-2.14 2.139A2.144 2.144 0 0 1 310 138.8m0 6.158a4.02 4.02 0 1 0-4.02-4.019 4.024 4.024 0 0 0 4.02 4.019" class="cls-8" transform="translate(-144.142 -133.308)"/>
            <path id="패스_36" d="M181.411 136.851h-1.934v11.828h1.934v-6.02h1.666v-1.775h-1.666z" class="cls-8" transform="translate(-97.432 -133.284)"/>
            <path id="패스_37" d="M169.5 154.18h-1.935v5.768l9.456-.018v-1.772l-7.52.018z" class="cls-8" transform="translate(-93.037 -139.684)"/>
            <path id="패스_38" d="M186.65 150.092h5.371v1.926h-3.838v1.773h7.641v3.978h1.935v-5.751h-3.8v-1.926h5.334v-1.775H186.65z" class="cls-8" transform="translate(-100.084 -137.522)"/>
            <path id="패스_39" d="M208.788 150.086h5.722v3.173h1.935v-3.173h4.985v-1.775h-12.642z" class="cls-8" transform="translate(-108.257 -137.514)"/>
            <path id="패스_40" d="M213.8 154.18h-1.937v5.751h9.127v-1.608h-7.19z" class="cls-8" transform="translate(-109.392 -139.684)"/>
            <path id="패스_41" d="M282.489 150.094h5.421v1.042h-3.833v1.606h7.7v.906h-7.7v4.12h9.636v-1.607h-7.7v-.9h7.7v-4.12h-3.863v-1.042h5.407v-1.778h-12.768z" class="cls-8" transform="translate(-135.47 -137.522)"/>
            <path id="사각형_13" d="M0 0H1.736V16.689H0z" class="cls-8" transform="translate(143.141 3.557)"/>
            <path id="패스_42" d="M266.512 142.986h-1.492l.011-.037a4.187 4.187 0 0 0 .181-1.222l-.049-.62h1.348zm-5.546 1.134a2.394 2.394 0 1 1 2.394-2.393 2.4 2.4 0 0 1-2.394 2.393m5.546-4.8h-2.05a4.236 4.236 0 1 0-.519 5.436h2.569v8.78h1.736v-16.685h-1.736z" class="cls-8" transform="translate(-125.956 -133.294)"/>
            <path id="패스_43" d="M287.57 136.828l-5.106 5.815h2.546l3.853-4.382.022.026s3.812 4.341 3.812 4.356h2.564c-.417-.476-5.084-5.8-5.084-5.815z" class="cls-8" transform="translate(-135.461 -133.273)"/>
            <path id="패스_44" d="M196.939 142.638h1.936v-5.784H189.2v1.772h7.741z" class="cls-8" transform="translate(-101.023 -133.283)"/>
            <path id="패스_45" d="M219.154 140.86h-6.232v-2.242h6.232zm1.933-4.017h-10.093v5.787h10.093v-5.789" class="cls-8" transform="translate(-109.07 -133.279)"/>
            <path id="패스_46" d="M332.313 153.325h1.936v-2.141h4.308v-1.776h-9.343v1.776h3.1z" class="cls-8" transform="translate(-152.734 -137.919)"/>
            <path id="패스_47" d="M344.288 138.558v1.756h-1.658v1.774h1.656v6.607h1.934v-11.841h-1.935z" class="cls-8" transform="translate(-157.681 -133.284)"/>
            <path id="패스_48" d="M234.486 141.072a2.054 2.054 0 1 1 2.051 2.05 2.048 2.048 0 0 1-2.051-2.05m10.085-4.508h-1.935v10.1h-5.149V144.9h-.094a3.933 3.933 0 0 0 3.075-3.829 3.893 3.893 0 0 0-.57-2.026h1.109v-1.765h-3.466l-.034-.009v-1.2h-1.928v1.2l-.044.011h-3.48v1.765h1.122a3.893 3.893 0 0 0-.57 2.026 3.933 3.933 0 0 0 3.063 3.826h-.119v1.762h-3.534v1.773h10.619v4.8h1.935v-10.808h1.674v-1.772h-1.674z" class="cls-8" transform="translate(-116.835 -132.992)"/>
            <path id="패스_49" d="M333.463 138.254a1.861 1.861 0 1 1-1.861 1.86 1.863 1.863 0 0 1 1.861-1.86m0 5.642a3.782 3.782 0 1 0-3.783-3.782 3.787 3.787 0 0 0 3.783 3.782" class="cls-8" transform="translate(-152.906 -133.087)"/>
        </g>
    </g>
</svg>
